<?xml version="1.0" encoding="UTF-8"?>
<svg width="24px" height="24px" viewBox="0 0 24 24" xmlns="http://www.w3.org/2000/svg" xmlns:xlink="http://www.w3.org/1999/xlink" version="1.1">
 <!-- Generated by Pixelmator Pro 2.3.3 -->
 <g id="group">
  <path id="Path" d="M0 0 L24 0 24 24 0 24 Z" fill="none" stroke="none"/>
  <path id="Path-1" d="M4.583 17.321 C3.553 16.227 3 15 3 13.011 3 9.511 5.457 6.374 9.03 4.823 L9.923 6.201 C6.588 8.005 5.936 10.346 5.676 11.822 6.213 11.544 6.916 11.447 7.605 11.511 9.409 11.678 10.831 13.159 10.831 15 10.831 15.928 10.462 16.818 9.806 17.475 9.149 18.131 8.259 18.5 7.331 18.5 6.258 18.5 5.232 18.01 4.583 17.321 Z M14.583 17.321 C13.553 16.227 13 15 13 13.011 13 9.511 15.457 6.374 19.03 4.823 L19.923 6.201 C16.588 8.005 15.936 10.346 15.676 11.822 16.213 11.544 16.916 11.447 17.605 11.511 19.409 11.678 20.831 13.159 20.831 15 20.831 15.928 20.462 16.818 19.806 17.475 19.149 18.131 18.259 18.5 17.331 18.5 16.258 18.5 15.232 18.01 14.583 17.321 Z" fill="#fabb51" fill-opacity="1" stroke="none"/>
 </g>
</svg>
